<?xml version="1.0" encoding="iso-8859-1"?><svg xmlns="http://www.w3.org/2000/svg" xmlns:xlink="http://www.w3.org/1999/xlink" viewBox="0 0 48 48" width="96px" height="96px"><g><g><path d="M25,18.4c11,0,20-2.4,20-5.4c0-1.1-1.2-2.1-3.2-2.9c0.8,0.5,1.2,1.1,1.2,1.7c0,2.6-8.1,4.7-18,4.7    S7,14.3,7,11.7c0-0.6,0.4-1.2,1.2-1.7c-2,0.8-3.2,1.9-3.2,2.9C5,15.9,14,18.4,25,18.4z"/><path d="M25,21c-8.8,0-16.3-1.6-19.9-4H5c0,2.3,0.8,4.7,1.9,7.1C1,28.2,2.1,39,12,37c0.5-0.1,0.5-0.5,0-0.6    c-3.9-0.5-7.9-5.3-4.1-10.3c2.3,4.4,5.5,8.8,7.2,12.9l0,0c0.7,1.7,4.8,3,9.9,3s9.2-1.3,9.9-3l0,0c3-7,10.1-15,10.1-22h-0.1    C41.3,19.4,33.8,21,25,21z"/></g></g><path d="M18,9c0,0-4.9-0.4-4.9,2.2c0,1.1,0.8,2.6,4.2,2.6c3,0,6.8-3.7,11.9-3.7c3.7,0,3.7,2.5,0.7,2.5  c-2,0-3-0.8-3-0.8c-0.6-0.4-1.3,0.4-1,1.1c0,0,0,1.1,4,1.1s4.6-1.9,4.5-2.6C34.3,10,33,8.7,30.9,8.3c-1.9-0.3-4-0.5-7,0.6  S18.8,12,16.8,12s-3.6-2.3,1.2-2C20.3,10.2,19,9,18,9z"/></svg>